{
  "accessors": [
    {
      "bufferView": 2,
      "componentType": 5126,
      "count": 5149,
      "max": [
        2.0,
        2.0,
        2.0
      ],
      "min": [
        -2.0,
        -2.0,
        -2.0
      ],
      "type": "VEC3"
    },
    {
      "bufferView": 2,
      "byteOffset": 61788,
      "componentType": 5126,
      "count": 5149,
      "max": [
        1.0,
        1.0,
        1.0
      ],
      "min": [
        -1.0,
        -1.0,
        -1.0
      ],
      "type": "VEC3"
    },
    {
      "bufferView": 1,
      "componentType": 5126,
      "count": 5149,
      "max": [
        1.0,
        1.0
      ],
      "min": [
        0.0,
        0.0
      ],
      "type": "VEC2"
    },
    {
      "bufferView": 0,
      "componentType": 5125,
      "count": 29400,
      "type": "SCALAR"
    },
    {
      "bufferView": 2,
      "byteOffset": 123576,
      "componentType": 5126,
      "count": 5149,
      "max": [
        2.0,
        2.0,
        2.0
      ],
      "min": [
        -2.0,
        -2.0,
        -2.0
      ],
      "type": "VEC3"
    },
    {
      "bufferView": 2,
      "byteOffset": 185364,
      "componentType": 5126,
      "count": 5149,
      "max": [
        1.0,
        1.0,
        1.0
      ],
      "min": [
        -1.0,
        -1.0,
        -1.0
      ],
      "type": "VEC3"
    },
    {
      "bufferView": 1,
      "byteOffset": 41192,
      "componentType": 5126,
      "count": 5149,
      "max": [
        1.0,
        1.0
      ],
      "min": [
        0.0,
        0.0
      ],
      "type": "VEC2"
    },
    {
      "bufferView": 0,
      "byteOffset": 117600,
      "componentType": 5125,
      "count": 29400,
      "type": "SCALAR"
    },
    {
      "bufferView": 2,
      "byteOffset": 247152,
      "componentType": 5126,
      "count": 5149,
      "max": [
        2.0,
        2.0,
        2.0
      ],
      "min": [
        -2.0,
        -2.0,
        -2.0
      ],
      "type": "VEC3"
    },
    {
      "bufferView": 2,
      "byteOffset": 308940,
      "componentType": 5126,
      "count": 5149,
      "max": [
        1.0,
        1.0,
        1.0
      ],
      "min": [
        -1.0,
        -1.0,
        -1.0
      ],
      "type": "VEC3"
    },
    {
      "bufferView": 1,
      "byteOffset": 82384,
      "componentType": 5126,
      "count": 5149,
      "max": [
        1.0,
        1.0
      ],
      "min": [
        0.0,
        0.0
      ],
      "type": "VEC2"
    },
    {
      "bufferView": 0,
      "byteOffset": 235200,
      "componentType": 5125,
      "count": 29400,
      "type": "SCALAR"
    },
    {
      "bufferView": 2,
      "byteOffset": 370728,
      "componentType": 5126,
      "count": 5149,
      "max": [
        2.0,
        2.0,
        2.0
      ],
      "min": [
        -2.0,
        -2.0,
        -2.0
      ],
      "type": "VEC3"
    },
    {
      "bufferView": 2,
      "byteOffset": 432516,
      "componentType": 5126,
      "count": 5149,
      "max": [
        1.0,
        1.0,
        1.0
      ],
      "min": [
        -1.0,
        -1.0,
        -1.0
      ],
      "type": "VEC3"
    },
    {
      "bufferView": 1,
      "byteOffset": 123576,
      "componentType": 5126,
      "count": 5149,
      "max": [
        1.0,
        1.0
      ],
      "min": [
        0.0,
        0.0
      ],
      "type": "VEC2"
    },
    {
      "bufferView": 0,
      "byteOffset": 352800,
      "componentType": 5125,
      "count": 29400,
      "type": "SCALAR"
    },
    {
      "bufferView": 2,
      "byteOffset": 494304,
      "componentType": 5126,
      "count": 5149,
      "max": [
        101.0,
        101.0,
        101.0
      ],
      "min": [
        -101.0,
        -101.0,
        -101.0
      ],
      "type": "VEC3"
    },
    {
      "bufferView": 2,
      "byteOffset": 556092,
      "componentType": 5126,
      "count": 5149,
      "max": [
        1.0,
        1.0,
        1.0
      ],
      "min": [
        -1.0,
        -1.0,
        -1.0
      ],
      "type": "VEC3"
    },
    {
      "bufferView": 1,
      "byteOffset": 164768,
      "componentType": 5126,
      "count": 5149,
      "max": [
        1.0,
        1.0
      ],
      "min": [
        0.0,
        0.0
      ],
      "type": "VEC2"
    },
    {
      "bufferView": 0,
      "byteOffset": 470400,
      "componentType": 5125,
      "count": 29400,
      "type": "SCALAR"
    },
    {
      "bufferView": 2,
      "byteOffset": 617880,
      "componentType": 5126,
      "count": 5149,
      "max": [
        100.0,
        100.0,
        100.0
      ],
      "min": [
        -100.0,
        -100.0,
        -100.0
      ],
      "type": "VEC3"
    },
    {
      "bufferView": 2,
      "byteOffset": 679668,
      "componentType": 5126,
      "count": 5149,
      "max": [
        1.0,
        1.0,
        1.0
      ],
      "min": [
        -1.0,
        -1.0,
        -1.0
      ],
      "type": "VEC3"
    },
    {
      "bufferView": 1,
      "byteOffset": 205960,
      "componentType": 5126,
      "count": 5149,
      "max": [
        1.0,
        1.0
      ],
      "min": [
        0.0,
        0.0
      ],
      "type": "VEC2"
    },
    {
      "bufferView": 0,
      "byteOffset": 588000,
      "componentType": 5125,
      "count": 29400,
      "type": "SCALAR"
    }
  ],
  "asset": {
    "extras": {
      "author": "Danny.Gallegos (https://sketchfab.com/Danny.Gallegos)",
      "license": "CC-BY-4.0 (http://creativecommons.org/licenses/by/4.0/)",
      "source": "https://sketchfab.com/3d-models/jupiter-with-moons-7f5f9e0b03fd464c8e3c7464232a072d",
      "title": "Jupiter With Moons"
    },
    "generator": "Sketchfab-12.68.0",
    "version": "2.0"
  },
  "bufferViews": [
    {
      "buffer": 0,
      "byteLength": 705600,
      "name": "floatBufferViews",
      "target": 34963
    },
    {
      "buffer": 0,
      "byteLength": 247152,
      "byteOffset": 705600,
      "byteStride": 8,
      "name": "floatBufferViews",
      "target": 34962
    },
    {
      "buffer": 0,
      "byteLength": 741456,
      "byteOffset": 952752,
      "byteStride": 12,
      "name": "floatBufferViews",
      "target": 34962
    }
  ],
  "buffers": [
    {
      "byteLength": 1694208,
      "uri": "scene.bin"
    }
  ],
  "images": [
    {
      "uri": "textures/Collisto_baseColor.jpeg"
    },
    {
      "uri": "textures/material_baseColor.jpeg"
    },
    {
      "uri": "textures/Ganymede_baseColor.jpeg"
    },
    {
      "uri": "textures/Europa_baseColor.jpeg"
    },
    {
      "uri": "textures/Clouds_baseColor.png"
    },
    {
      "uri": "textures/Jupiter_baseColor.png"
    },
    {
      "uri": "textures/Jupiter_emissive.png"
    }
  ],
  "materials": [
    {
      "doubleSided": true,
      "name": "Collisto",
      "pbrMetallicRoughness": {
        "baseColorTexture": {
          "index": 0
        },
        "metallicFactor": 0.0,
        "roughnessFactor": 0.9524317153998911
      }
    },
    {
      "doubleSided": true,
      "name": "material",
      "pbrMetallicRoughness": {
        "baseColorTexture": {
          "index": 1
        },
        "metallicFactor": 0.0,
        "roughnessFactor": 0.9524317153998911
      }
    },
    {
      "doubleSided": true,
      "name": "Ganymede",
      "pbrMetallicRoughness": {
        "baseColorTexture": {
          "index": 2
        },
        "metallicFactor": 0.0,
        "roughnessFactor": 0.9524317153998911
      }
    },
    {
      "doubleSided": true,
      "name": "Europa",
      "pbrMetallicRoughness": {
        "baseColorTexture": {
          "index": 3
        },
        "metallicFactor": 0.0,
        "roughnessFactor": 0.9524317153998911
      }
    },
    {
      "alphaMode": "BLEND",
      "doubleSided": true,
      "name": "Clouds",
      "pbrMetallicRoughness": {
        "baseColorFactor": [
          0.0,
          0.0,
          0.0,
          0.0
        ],
        "baseColorTexture": {
          "index": 4
        },
        "metallicFactor": 0.0,
        "roughnessFactor": 0.9524317153998911
      }
    },
    {
      "doubleSided": true,
      "emissiveFactor": [
        0.6859195349883564,
        0.6859195349883564,
        0.6859195349883564
      ],
      "emissiveTexture": {
        "index": 6
      },
      "name": "Jupiter",
      "pbrMetallicRoughness": {
        "baseColorTexture": {
          "index": 5
        },
        "metallicFactor": 0.0,
        "roughnessFactor": 0.9922097781344813
      }
    }
  ],
  "meshes": [
    {
      "name": "Callisto_Collisto_0",
      "primitives": [
        {
          "attributes": {
            "NORMAL": 1,
            "POSITION": 0,
            "TEXCOORD_0": 2
          },
          "indices": 3,
          "material": 0,
          "mode": 4
        }
      ]
    },
    {
      "name": "IO_IO_0",
      "primitives": [
        {
          "attributes": {
            "NORMAL": 5,
            "POSITION": 4,
            "TEXCOORD_0": 6
          },
          "indices": 7,
          "material": 1,
          "mode": 4
        }
      ]
    },
    {
      "name": "Ganymede_Ganymede_0",
      "primitives": [
        {
          "attributes": {
            "NORMAL": 9,
            "POSITION": 8,
            "TEXCOORD_0": 10
          },
          "indices": 11,
          "material": 2,
          "mode": 4
        }
      ]
    },
    {
      "name": "Europa_Europa_0",
      "primitives": [
        {
          "attributes": {
            "NORMAL": 13,
            "POSITION": 12,
            "TEXCOORD_0": 14
          },
          "indices": 15,
          "material": 3,
          "mode": 4
        }
      ]
    },
    {
      "name": "Clouds_Clouds_0",
      "primitives": [
        {
          "attributes": {
            "NORMAL": 17,
            "POSITION": 16,
            "TEXCOORD_0": 18
          },
          "indices": 19,
          "material": 4,
          "mode": 4
        }
      ]
    },
    {
      "name": "Jupiter_Jupiter_0",
      "primitives": [
        {
          "attributes": {
            "NORMAL": 21,
            "POSITION": 20,
            "TEXCOORD_0": 22
          },
          "indices": 23,
          "material": 5,
          "mode": 4
        }
      ]
    }
  ],
  "nodes": [
    {
      "children": [
        1
      ],
      "matrix": [
        1.0,
        0.0,
        0.0,
        0.0,
        0.0,
        2.220446049250313e-16,
        -1.0,
        0.0,
        0.0,
        1.0,
        2.220446049250313e-16,
        0.0,
        0.0,
        0.0,
        0.0,
        1.0
      ],
      "name": "Sketchfab_model"
    },
    {
      "children": [
        2
      ],
      "matrix": [
        0.009999999776482582,
        0.0,
        0.0,
        0.0,
        0.0,
        0.0,
        0.009999999776482582,
        0.0,
        0.0,
        -0.009999999776482582,
        0.0,
        0.0,
        0.0,
        0.0,
        0.0,
        1.0
      ],
      "name": "48158883b0be4d8996a53beee3832870.fbx"
    },
    {
      "children": [
        3,
        5,
        7,
        9,
        11,
        13
      ],
      "name": "RootNode"
    },
    {
      "children": [
        4
      ],
      "matrix": [
        1.0,
        0.0,
        0.0,
        0.0,
        0.0,
        1.0,
        0.0,
        0.0,
        0.0,
        0.0,
        1.0,
        0.0,
        -308.22369384765625,
        -3.102102041244507,
        -109.34363555908203,
        1.0
      ],
      "name": "Callisto"
    },
    {
      "mesh": 0,
      "name": "Callisto_Collisto_0"
    },
    {
      "children": [
        6
      ],
      "matrix": [
        1.0,
        0.0,
        0.0,
        0.0,
        0.0,
        1.0,
        0.0,
        0.0,
        0.0,
        0.0,
        1.0,
        0.0,
        78.43708038330078,
        -3.102102041244507,
        174.50750732421875,
        1.0
      ],
      "name": "IO"
    },
    {
      "mesh": 1,
      "name": "IO_IO_0"
    },
    {
      "children": [
        8
      ],
      "matrix": [
        1.0,
        0.0,
        0.0,
        0.0,
        0.0,
        1.0,
        0.0,
        0.0,
        0.0,
        0.0,
        1.0,
        0.0,
        346.876708984375,
        -3.102102041244507,
        147.3531951904297,
        1.0
      ],
      "name": "Ganymede"
    },
    {
      "mesh": 2,
      "name": "Ganymede_Ganymede_0"
    },
    {
      "children": [
        10
      ],
      "matrix": [
        1.0,
        0.0,
        0.0,
        0.0,
        0.0,
        1.0,
        0.0,
        0.0,
        0.0,
        0.0,
        1.0,
        0.0,
        152.66029357910156,
        -21.509023666381836,
        -141.53518676757813,
        1.0
      ],
      "name": "Europa"
    },
    {
      "mesh": 3,
      "name": "Europa_Europa_0"
    },
    {
      "children": [
        12
      ],
      "name": "Clouds"
    },
    {
      "mesh": 4,
      "name": "Clouds_Clouds_0"
    },
    {
      "children": [
        14
      ],
      "name": "Jupiter"
    },
    {
      "mesh": 5,
      "name": "Jupiter_Jupiter_0"
    }
  ],
  "samplers": [
    {
      "magFilter": 9729,
      "minFilter": 9987,
      "wrapS": 10497,
      "wrapT": 10497
    }
  ],
  "scene": 0,
  "scenes": [
    {
      "name": "Sketchfab_Scene",
      "nodes": [
        0
      ]
    }
  ],
  "textures": [
    {
      "sampler": 0,
      "source": 0
    },
    {
      "sampler": 0,
      "source": 1
    },
    {
      "sampler": 0,
      "source": 2
    },
    {
      "sampler": 0,
      "source": 3
    },
    {
      "sampler": 0,
      "source": 4
    },
    {
      "sampler": 0,
      "source": 5
    },
    {
      "sampler": 0,
      "source": 6
    }
  ]
}
